<svg id="line" viewBox="0 0 64 64" xmlns="http://www.w3.org/2000/svg"><path d="m26.97574 31.07234a12.44592 12.44592 0 1 0 -12.44519-12.44568 12.46036 12.46036 0 0 0 12.44519 12.44568zm0-22.89124a10.44532 10.44532 0 1 1 -10.44459 10.44556 10.45756 10.45756 0 0 1 10.44459-10.44556z"/><path d="m32.0681 50.19388h-24.31696a1.75266 1.75266 0 0 1 -1.75053-1.75054v-4.97123a8.61015 8.61015 0 0 1 5.88948-8.17436l7.02655-2.34837a16.38434 16.38434 0 0 0 16.11721.002l1.17715.39562a1.00056 1.00056 0 0 0 .63691-1.89706l-1.60991-.54025a1.00311 1.00311 0 0 0 -.83814.09378 14.37247 14.37247 0 0 1 -14.84534 0 1.03345 1.03345 0 0 0 -.84791-.09378l-7.45051 2.491a10.60639 10.60639 0 0 0 -7.2561 10.07142v4.97123a3.75587 3.75587 0 0 0 3.75114 3.75115h24.317a1.00031 1.00031 0 1 0 0-2.00061z"/><path d="m58.87313 23.32389a31.60233 31.60233 0 0 0 -13.96518 5.658 14.93016 14.93016 0 0 0 -1.30417 2.34642 1.00894 1.00894 0 0 0 -1.44765-.11381 28.88549 28.88549 0 0 0 -2.36888 2.39917c-.88143 1.18627-2.38262 2.23512-2.30832 3.82337-.9699-.015-1.24147 1.179-1.70859 1.83845-.1947.35161-4.57115 8.43268.35069 11.93679-.57854 1.64241-1.13407 3.42512-1.63715 5.35466a1.00033 1.00033 0 1 0 1.93612.50406c.49442-1.89657 1.03932-3.64668 1.6062-5.25288 2.51731.13853 8.99328-1.02766 10.08181-5.82.07094-.76323.96916-1.96055.42713-2.7907a1.07345 1.07345 0 0 0 .67-.64082c.30283-.85964.635-1.77105 1.01789-2.7313.33292-1.03779 1.0304-2.24519 1.34721-3.48348a.9967.9967 0 0 0 -.33519-.74828l1.17907-1.13218c.53032-.746 1.08078-2.074 1.59918-2.91983 2.84553-5.22864 4.60193-6.121 5.22419-6.26167a1.00147 1.00147 0 0 0 -.36436-1.96597zm-6.61236 7.26442c-.32725.58855-.97 1.78765-1.35686 2.56035l-2.531 2.42945a1.00665 1.00665 0 0 0 .28329 1.63428c.84773.11753-.26119 1.36412-.29581 1.89511-.33036.82642-.62635 1.62745-.89889 2.39037l-2.9345 1.33342a1.00712 1.00712 0 0 0 -.00678 1.81891 4.66681 4.66681 0 0 0 1.76513.43861 5.41589 5.41589 0 0 1 -.75707 1.80328c-1.54353 2.28335-4.85928 2.79431-6.74228 2.89691a46.33282 46.33282 0 0 1 5.65012-10.6014 1.00069 1.00069 0 0 0 -1.60012-1.20148 48.60443 48.60443 0 0 0 -5.96471 11.20745c-2.30368-2.40747-.18359-7.26356.47189-8.60124a1.26962 1.26962 0 0 0 1.43012.376.99841.99841 0 0 0 .549-.83417l.17877-2.995a30.69341 30.69341 0 0 1 3.04581-3.54116c.46449.72489 1.58843 1.089 2.05439.18548l1.69573-3.34073a29.61872 29.61872 0 0 1 8.77611-4.24494 30.61477 30.61477 0 0 0 -2.81234 4.3905z"/></svg>